<svg width="20" height="21" viewBox="0 0 20 21" fill="none" xmlns="http://www.w3.org/2000/svg">
<g id="email 1">
<path id="Vector" d="M9.99993 10.384L18.1306 5.94908C17.872 5.09828 17.3475 4.35278 16.6341 3.822C15.9206 3.29123 15.0558 3.00313 14.1666 3H5.83326C4.94404 3.00313 4.07924 3.29123 3.3658 3.822C2.65235 4.35278 2.12785 5.09828 1.86926 5.94908L9.99993 10.384Z" fill="#6418C3"/>
<path id="Vector_2" d="M10.3992 12.0649C10.2768 12.1317 10.1396 12.1666 10.0001 12.1666C9.86061 12.1666 9.72337 12.1317 9.60091 12.0649L1.66675 7.73715V13.8333C1.66805 14.938 2.10745 15.997 2.88857 16.7782C3.66969 17.5593 4.72875 17.9987 5.83342 18H14.1667C15.2714 17.9987 16.3305 17.5593 17.1116 16.7782C17.8927 15.997 18.3321 14.938 18.3334 13.8333V7.73715L10.3992 12.0649Z" fill="#6418C3"/>
</g>
</svg>
