<svg width="20" height="21" viewBox="0 0 20 21" fill="none" xmlns="http://www.w3.org/2000/svg">
<g id="phone 1">
<g id="x32 7 Phone">
<path id="Vector" d="M16.2961 13.8368L14.2716 12.4223C14.0068 12.2377 13.6974 12.1403 13.3765 12.1403C12.8662 12.1403 12.3872 12.3906 12.0955 12.8093L11.6255 13.4828C10.8379 12.9545 9.95897 12.2169 9.12111 11.3792C8.2834 10.5415 7.54594 9.6626 7.01783 8.87494L7.69105 8.40497C8.03422 8.16602 8.26341 7.80804 8.33619 7.39728C8.40882 6.98682 8.31727 6.57208 8.07801 6.22876L6.66383 4.20422C6.36811 3.78125 5.89097 3.52856 5.38728 3.52856C5.21272 3.52856 5.04152 3.55939 4.87855 3.61951C4.69346 3.68787 4.52104 3.77179 4.35197 3.87799L4.07243 4.07483C4.00254 4.12915 3.93754 4.18866 3.87529 4.25092C3.53425 4.5918 3.29225 5.02332 3.15568 5.53357C2.57295 7.71802 4.01658 11.0212 6.74791 13.7526C9.04161 16.0463 11.7972 17.4711 13.9391 17.4714H13.9392C14.306 17.4714 14.6518 17.4287 14.9671 17.3445C15.4773 17.2081 15.9088 16.9661 16.25 16.6249C16.312 16.5629 16.3712 16.4979 16.4346 16.4158L16.6316 16.1348C16.7279 15.981 16.8117 15.8085 16.881 15.6221C17.1192 14.9781 16.8787 14.2439 16.2961 13.8368Z" fill="#6418C3"/>
</g>
</g>
</svg>
